<svg xmlns="http://www.w3.org/2000/svg" width="120" height="120" viewBox="0 0 120 120"><defs><linearGradient id="a" x1="50%" x2="50%" y1="0%" y2="100%"><stop offset="0%" stop-color="#008EE7"/><stop offset="100%" stop-color="#00D6FA"/></linearGradient></defs><g fill="none" fill-rule="evenodd"><rect width="120" height="120" fill="url(#a)" rx="28"/><path fill="#FFF" d="M25.114 84.964l21.196-21.95 5.13 5.165a12.553 12.553 0 0 0 17.84 0l4.64-4.672L94.666 84.99c-.331.07-.675.106-1.027.106H26.26c-.394 0-.778-.046-1.146-.132zm73.392-46.215c.087.37.133.755.133 1.151v40.196c0 1.29-.489 2.466-1.29 3.353L76.033 61.378l22.472-22.63zM21.36 81.094V40.9c0-.868.221-1.685.61-2.397l22.226 22.382L22.482 83.37a4.983 4.983 0 0 1-1.122-2.277zm75.467-45.046L67.189 65.685c-3.905 3.906-10.237 3.906-14.142 0L23.26 35.9c.835-.627 1.874-.999 3-.999h67.378a4.98 4.98 0 0 1 3.188 1.148z"/></g></svg>