<svg xmlns="http://www.w3.org/2000/svg" xmlns:xlink="http://www.w3.org/1999/xlink" width="120" height="120" viewBox="0 0 120 120"><defs><linearGradient id="a" x1="50%" x2="50%" y1="0%" y2="100%"><stop offset="0%" stop-color="#FF5A76"/><stop offset="100%" stop-color="#FF416C"/></linearGradient><filter id="b" width="120%" height="121.6%" x="-15%" y="-10.8%" filterUnits="objectBoundingBox"><feOffset dx="-4" in="SourceAlpha" result="shadowOffsetOuter1"/><feGaussianBlur in="shadowOffsetOuter1" result="shadowBlurOuter1" stdDeviation="2"/><feColorMatrix in="shadowBlurOuter1" values="0 0 0 0 0 0 0 0 0 0 0 0 0 0 0 0 0 0 0.2 0"/></filter><path id="c" d="M25 24h76v69a5 5 0 0 1-5 5H25V24zm-4 74c2 0 4-2 4-4v4h-4z"/></defs><g fill="none" fill-rule="evenodd"><rect width="120" height="120" fill="url(#a)" rx="28"/><path fill="#FFF" d="M17 32h14v66H21a4 4 0 0 1-4-4V32z"/><use fill="#000" filter="url(#b)" xlink:href="#c"/><use fill="#FFF" xlink:href="#c"/><path fill="#C8C7CC" d="M35 70h66v4H35a2 2 0 110-4zM35 78h66v4H35a2 2 0 110-4zM35 86h66v4H35a2 2 0 110-4z"/><path fill="#FF5B75" d="M62.42 51.826c.294.293.496.68.559 1.11l.021.007v6.793l-.018.017a1.981 1.981 0 0 1-2.229 2.229l-.017.018h-6.793l-.007-.021a1.976 1.976 0 0 1-1.11-.56l-.015.015-19.245-19.245.014-.015a1.976 1.976 0 0 1-.559-1.11L33 41.057v-6.793l.018-.017a1.981 1.981 0 0 1 2.229-2.229l.017-.018h6.793l.007.021c.376.055.718.217.995.453l.018-.02 19.357 19.357-.014.015zm.558-10.556a2.027 2.027 0 0 1-3.43 1.144l-.022.007-6.947-6.947.007-.022a2.027 2.027 0 0 1 1.143-3.43l.008-.022h6.947l.018.018a2.026 2.026 0 0 1 2.28 2.28l.018.018v6.947l-.022.007zM33.022 52.73a2.027 2.027 0 0 1 3.43-1.144l.022-.007 6.947 6.947-.007.022a2.027 2.027 0 0 1-1.143 3.43l-.008.022h-6.947l-.018-.018a2.026 2.026 0 0 1-2.28-2.28L33 59.684v-6.947l.022-.007z"/></g></svg>