<svg xmlns="http://www.w3.org/2000/svg" id="Layer_1" x="0" y="0" version="1.1" viewBox="0 0 100 100" xml:space="preserve"><g id="Icon_4_"><g id="Graphics-_x2F_-App-Icons-_x2F_-Twitter-"><g id="Icon_5_"><linearGradient id="Background_13_" x1="-542.25" x2="-542.25" y1="749.233" y2="747.733" gradientTransform="matrix(60 0 0 -60 32585 44959)" gradientUnits="userSpaceOnUse"><stop offset="0" stop-color="#55ACEE"/><stop offset="1" stop-color="#3B88C4"/></linearGradient><path id="Background_6_" fill="url(#Background_13_)" d="M5 26C5 13.8 13.7 5 26 5h48c12.3 0 21 8.7 21 21v49.5C95 86.3 86.3 95 75.5 95h-51C13.7 95 5 86.3 5 75.5V26z"/><path id="Twitter-Icon" fill="#fff" d="M76.2 33.4c-2 .9-4.1 1.5-6.3 1.7 2.3-1.4 4-3.5 4.8-6.1-2.1 1.3-4.4 2.2-6.9 2.7-2-2.1-4.8-3.5-8-3.5-6 0-10.9 4.9-10.9 11 0 .9.1 1.7.3 2.5-9.1-.5-17.1-4.8-22.5-11.5-.9 1.6-1.5 3.5-1.5 5.5 0 3.8 1.9 7.2 4.9 9.1-1.8-.1-3.5-.5-4.9-1.4v.1c0 5.3 3.8 9.8 8.8 10.8-1 .4-2 .6-3 .6-.7 0-1.4-.1-2.1-.2 1.4 4.4 5.4 7.5 10.2 7.6-3.7 2.9-8.4 4.7-13.6 4.7-.9 0-1.8-.1-2.6-.2 4.8 3.1 10.6 4.9 16.7 4.9 20.1 0 31.1-16.7 31.1-31.2v-1.4c2.2-1.5 4-3.5 5.5-5.7z"/></g></g></g></svg>